<svg width="608" height="71" xmlns="http://www.w3.org/2000/svg"><path d="M44.115 44.018H18.97l-1.71 4.199c-2.538 6.087-3.808 10.058-3.808 11.914 0 1.986.676 3.491 2.027 4.516 1.35 1.026 3.084 1.539 5.2 1.539v2.246H1v-2.246c2.93-.456 5.11-1.49 6.543-3.101 1.432-1.611 3.158-5.005 5.176-10.18.163-.489.944-2.377 2.344-5.665L34.3 1.293h1.904l22.12 52.588 3.027 6.933c.683 1.563 1.603 2.792 2.758 3.687 1.156.895 2.89 1.457 5.2 1.685v2.246H43.286v-2.246c3.19 0 5.347-.236 6.47-.708 1.123-.472 1.684-1.408 1.684-2.808 0-.716-.748-2.848-2.246-6.397l-5.078-12.255zm-.83-2.198L31.566 13.598 19.896 41.82h23.39zm71.778 15.186l24.12-54.785h20.313v2.246h-2.441c-3.256 0-5.388.268-6.397.805-1.009.538-1.684 1.539-2.026 3.003-.342 1.465-.513 4.948-.513 10.45v32.47c0 5.209.13 8.618.39 10.23.261 1.611.92 2.807 1.978 3.589 1.058.78 3.085 1.172 6.08 1.172h2.93v2.246h-31.642v-2.246h2.344c2.8 0 4.745-.359 5.835-1.075 1.09-.716 1.79-1.83 2.1-3.344.309-1.514.464-5.038.464-10.572V9.057l-26.221 59.375h-2.295L83.666 9.057v38.77c0 5.305.163 8.918.488 10.839.326 1.92 1.335 3.605 3.028 5.054 1.692 1.448 4.069 2.27 7.129 2.466v2.246H70.629v-2.246c2.832-.163 5.135-.936 6.91-2.32 1.773-1.383 2.856-3.084 3.246-5.102.39-2.019.586-5.762.586-11.23v-28.81c0-5.273-.155-8.675-.464-10.204-.309-1.53-.96-2.588-1.953-3.174-.993-.586-3.166-.88-6.518-.88h-1.807V2.222h20.166l24.267 54.785zm51.464-22.12c0-10.22 3.418-18.424 10.254-24.609C183.617 4.092 192.146 1 202.367 1c10.32 0 18.937 3.06 25.855 9.18 6.917 6.12 10.376 14.469 10.376 25.049 0 10.253-3.312 18.554-9.937 24.902-6.624 6.348-15.34 9.521-26.147 9.521-10.515 0-19.14-3.173-25.88-9.521-6.738-6.348-10.107-14.762-10.107-25.244zm11.182.343c0 10.644 2.124 18.636 6.372 23.974 4.248 5.339 10.62 8.008 19.116 8.008 7.455 0 13.347-2.67 17.676-8.008 4.33-5.338 6.494-13.297 6.494-23.877 0-10.286-2.132-18.172-6.396-23.657-4.265-5.485-10.45-8.228-18.555-8.228-7.975 0-14.087 2.678-18.335 8.033-4.248 5.354-6.372 13.273-6.372 23.755zm138.672 33.203h-17.822c-3.158-2.214-7.992-8.008-14.502-17.383a140.217 140.217 0 0 0-6.495-8.618c-2.246-2.751-3.792-4.427-4.638-5.03-.847-.602-2.165-.903-3.955-.903h-2.637v14.697c0 5.209.122 8.618.366 10.23.244 1.611.895 2.807 1.953 3.589 1.058.78 3.085 1.172 6.08 1.172h3.173v2.246h-31.69v-2.246h2.15c2.831 0 4.793-.359 5.883-1.075 1.09-.716 1.782-1.83 2.075-3.344.293-1.514.44-5.038.44-10.572v-32.47c0-5.274-.147-8.676-.44-10.205-.293-1.53-.944-2.588-1.953-3.174-1.009-.586-3.19-.88-6.543-.88h-1.123V2.222l9.473-.489c6.315-.293 11.328-.439 15.039-.439 6.315 0 11.45.586 15.405 1.758 3.955 1.172 7.153 3.092 9.595 5.761 2.441 2.67 3.662 5.86 3.662 9.57 0 4.33-1.595 8.025-4.785 11.085-3.19 3.06-7.878 4.964-14.063 5.713 2.767 1.334 7.227 6.152 13.38 14.453 5.012 6.738 8.951 11.149 11.816 13.232 2.864 2.084 6.25 3.19 10.156 3.32v2.247zm-50.049-34.18c2.441-.065 4.964-.163 7.568-.293 2.605-.13 4.867-.488 6.788-1.074 1.92-.586 3.474-1.44 4.663-2.564 1.188-1.123 2.124-2.596 2.807-4.419.684-1.823 1.026-4.069 1.026-6.738 0-4.655-1.164-8.382-3.492-11.182-2.327-2.8-7.397-4.199-15.21-4.199-1.204 0-2.587.065-4.15.196v30.273zM343.92 2.758l10.889-.537c9.082-.456 15.201-.684 18.359-.684 9.83 0 17.497 1.497 22.998 4.492 5.501 2.995 9.595 7.056 12.28 12.183 2.686 5.127 4.029 11.043 4.029 17.749 0 4.85-.733 9.285-2.198 13.306-1.465 4.02-3.475 7.356-6.03 10.01a25.853 25.853 0 0 1-8.887 6.054c-3.369 1.384-6.567 2.246-9.594 2.588-3.028.342-7.292.513-12.793.513h-29.346v-2.246h2.734c2.832 0 4.794-.359 5.884-1.075 1.09-.716 1.79-1.83 2.1-3.344.309-1.514.464-5.038.464-10.572V19.262c0-5.274-.155-8.684-.464-10.23-.31-1.546-.96-2.604-1.953-3.174-.993-.57-3.166-.854-6.519-.854h-1.953V2.758zm20.41 1.367v44.238c0 6.543.122 10.759.366 12.647s.977 3.214 2.198 3.98c1.22.764 3.8 1.147 7.739 1.147 5.762 0 10.498-.79 14.209-2.368 3.71-1.58 6.811-4.688 9.302-9.327 2.49-4.638 3.735-10.555 3.735-17.749 0-5.599-.724-10.595-2.173-14.99-1.449-4.394-3.524-7.967-6.226-10.718-2.701-2.75-5.696-4.622-8.984-5.615-3.288-.993-7.503-1.49-12.646-1.49-2.474 0-4.98.082-7.52.245zm110.352 43.701h2.343l-1.416 20.606h-54.834v-2.246h1.368c3.287 0 5.411-.44 6.372-1.319.96-.879 1.57-1.994 1.83-3.345.261-1.35.391-4.793.391-10.327v-32.47c0-5.046-.138-8.366-.415-9.961-.276-1.595-.911-2.71-1.904-3.345-.993-.635-3.084-.952-6.274-.952V2.22h47.314l1.563 16.504h-2.295c-1.042-4.623-2.32-7.902-3.833-9.84-1.514-1.936-3.313-3.157-5.396-3.661-2.083-.505-5.436-.757-10.058-.757h-9.18V32.25h7.031c3.223 0 5.477-.277 6.763-.83 1.286-.553 2.132-1.392 2.539-2.515.407-1.123.61-3.312.61-6.567h2.295v22.656h-2.295c0-3.678-.31-6.144-.928-7.397-.618-1.254-1.521-2.067-2.71-2.442-1.188-.374-3.198-.561-6.03-.561h-7.275v15.674c0 7.845.504 12.459 1.513 13.842 1.01 1.384 3.728 2.076 8.155 2.076h4.931c3.484 0 6.348-.448 8.594-1.343 2.246-.895 4.387-2.735 6.421-5.518 2.035-2.783 3.638-6.616 4.81-11.499zm58.252-45.605h22.119v2.246c-2.93.195-5.12.854-6.568 1.977-1.448 1.123-2.335 2.385-2.66 3.785-.326 1.4-.49 4.117-.49 8.154v22.021c0 5.632-.219 9.815-.658 12.55-.44 2.734-1.71 5.419-3.809 8.056-2.1 2.636-5.054 4.736-8.862 6.299-3.809 1.562-8.203 2.343-13.184 2.343-5.892 0-10.88-1-14.966-3.003-4.085-2.002-6.998-4.59-8.74-7.763-1.741-3.174-2.612-7.43-2.612-12.769l.049-6.787V18.725c0-5.274-.155-8.676-.464-10.205-.31-1.53-.96-2.588-1.953-3.174-.993-.586-3.166-.88-6.519-.88h-1.513V2.222h30.224v2.246h-1.318c-3.255 0-5.388.268-6.397.805-1.009.538-1.684 1.539-2.026 3.003-.342 1.465-.513 4.948-.513 10.45v20.85c0 7.226.334 12.353 1.001 15.38.668 3.027 2.547 5.672 5.64 7.935 3.092 2.262 7.21 3.393 12.353 3.393 4.037 0 7.707-.757 11.011-2.27 3.304-1.514 5.762-3.402 7.373-5.664 1.611-2.263 2.596-4.59 2.954-6.983.358-2.392.537-6.16.537-11.303v-22.56c0-3.743-.211-6.363-.634-7.86-.424-1.498-1.335-2.686-2.735-3.565s-3.613-1.416-6.64-1.611V2.22zm30.029 65.527V46.459h2.441c2.767 13.867 9.326 20.8 19.678 20.8 4.655 0 8.26-1.326 10.815-3.979 2.556-2.653 3.833-5.623 3.833-8.91 0-3.321-1.123-6.104-3.369-8.35-2.246-2.214-6.347-4.59-12.304-7.13-5.306-2.278-9.31-4.272-12.012-5.98-2.702-1.71-4.81-3.931-6.323-6.666-1.514-2.734-2.27-5.648-2.27-8.74 0-4.72 1.635-8.65 4.906-11.792C571.63 2.57 575.772 1 580.785 1c2.8 0 5.436.456 7.91 1.367 2.474.912 5.013 2.8 7.617 5.664 1.498-1.79 2.344-3.727 2.54-5.81H601v17.334h-2.148c-1.237-5.046-3.427-9.017-6.568-11.914-3.141-2.898-6.779-4.346-10.913-4.346-3.939 0-6.828 1.066-8.667 3.198-1.84 2.132-2.759 4.468-2.759 7.007 0 3.06 1.156 5.648 3.467 7.764 2.279 2.148 6.397 4.557 12.354 7.226 5.696 2.54 9.838 4.582 12.426 6.128 2.588 1.546 4.663 3.687 6.226 6.421 1.562 2.734 2.344 5.892 2.344 9.473 0 5.664-1.888 10.27-5.664 13.818s-8.822 5.322-15.137 5.322c-7.26 0-13.314-2.783-18.164-8.35-1.074 1.53-1.872 3.68-2.393 6.446h-2.441z" stroke="#D3CD84" stroke-width="1.5" fill="none" fill-rule="evenodd"/></svg>