<svg width="1204" height="71" xmlns="http://www.w3.org/2000/svg"><path d="M57.738 49.045l-.488 19.482H1v-2.246h1.953c2.832 0 4.793-.358 5.884-1.074 1.09-.716 1.79-1.831 2.1-3.345.309-1.513.463-5.037.463-10.571v-32.47c0-5.274-.154-8.676-.463-10.206-.31-1.53-.96-2.588-1.954-3.174-.992-.586-3.165-.878-6.518-.878H1V2.316h31.787v2.247h-2.93c-3.255 0-5.387.268-6.396.805-1.01.537-1.685 1.538-2.026 3.003-.342 1.465-.513 4.948-.513 10.45v34.667c0 4.785.13 7.78.39 8.985.26 1.204.969 2.14 2.125 2.807 1.155.668 3.637 1.001 7.446 1.001h5.03c4.068 0 7.087-.358 9.057-1.074 1.97-.716 3.84-2.279 5.615-4.687 1.774-2.41 3.394-6.234 4.858-11.475h2.295zm7.764-21.143v-2.588c6.315-1.237 9.473-4.768 9.473-10.595 0-2.051-.603-3.076-1.807-3.076-.26 0-.586.048-.977.146-.748.228-1.4.342-1.953.342-1.595 0-2.864-.505-3.808-1.514S65.014 8.47 65.014 7.2s.48-2.4 1.44-3.393c.96-.993 2.205-1.49 3.735-1.49 2.084 0 3.899.977 5.445 2.93 1.546 1.953 2.32 4.574 2.32 7.861 0 3.776-1.083 6.991-3.248 9.644-2.165 2.653-5.233 4.37-9.204 5.151zm61.23 16.211h-25.146l-1.709 4.2c-2.54 6.087-3.809 10.058-3.809 11.914 0 1.985.676 3.49 2.027 4.516 1.35 1.026 3.084 1.538 5.2 1.538v2.246H83.617v-2.246c2.93-.455 5.11-1.489 6.543-3.1 1.432-1.612 3.158-5.005 5.176-10.181.163-.488.944-2.376 2.344-5.664l19.238-45.947h1.904l22.12 52.588 3.027 6.933c.683 1.563 1.603 2.791 2.759 3.687 1.155.895 2.889 1.456 5.2 1.684v2.246h-26.026v-2.246c3.19 0 5.347-.236 6.47-.708 1.123-.472 1.685-1.408 1.685-2.807 0-.717-.749-2.849-2.246-6.397l-5.079-12.256zm-.83-2.197l-11.718-28.223-11.67 28.223h23.388zm64.356 28.174h-3.028L164.38 17.453c-.423-.944-1.09-2.571-2.002-4.883-1.27-3.125-2.604-5.224-4.004-6.299-1.4-1.074-3.662-1.643-6.787-1.708V2.316h28.516v2.247c-3.549 0-5.933.26-7.154.78-1.22.522-1.83 1.514-1.83 2.98 0 .943.764 3.157 2.294 6.64l19.043 43.945 15.283-36.572c2.572-6.12 3.858-10.107 3.858-11.963 0-3.743-2.653-5.68-7.96-5.81V2.316h20.216v2.247c-2.051.065-3.858.797-5.42 2.197-1.563 1.4-2.914 3.45-4.053 6.152l-4.443 10.4-19.678 46.778zm91.015-22.168h2.344l-1.416 20.605h-54.834v-2.246h1.367c3.288 0 5.412-.44 6.372-1.318.96-.879 1.571-1.994 1.832-3.345.26-1.35.39-4.793.39-10.327v-32.47c0-5.046-.138-8.367-.415-9.962-.277-1.595-.911-2.71-1.904-3.344-.993-.635-3.085-.952-6.275-.952V2.316h47.315l1.562 16.504h-2.295c-1.041-4.622-2.319-7.902-3.833-9.839-1.513-1.936-3.312-3.157-5.395-3.662-2.083-.504-5.436-.756-10.059-.756h-9.18v27.783h7.032c3.223 0 5.477-.277 6.763-.83 1.285-.554 2.132-1.392 2.539-2.515.407-1.123.61-3.312.61-6.567h2.295V45.09h-2.295c0-3.679-.31-6.144-.928-7.398-.618-1.253-1.522-2.067-2.71-2.441-1.188-.374-3.198-.562-6.03-.562h-7.275v15.674c0 7.845.504 12.46 1.513 13.843 1.01 1.384 3.727 2.075 8.155 2.075h4.931c3.483 0 6.348-.447 8.594-1.343 2.246-.895 4.386-2.734 6.42-5.517 2.035-2.783 3.639-6.616 4.81-11.5zm58.252-45.606h22.12v2.247c-2.93.195-5.12.854-6.568 1.977-1.448 1.123-2.335 2.384-2.661 3.784-.326 1.4-.488 4.118-.488 8.155V40.5c0 5.632-.22 9.814-.66 12.549-.439 2.734-1.708 5.42-3.808 8.056-2.1 2.637-5.054 4.737-8.862 6.3-3.809 1.562-8.203 2.343-13.184 2.343-5.892 0-10.88-1-14.966-3.003-4.085-2.002-6.998-4.59-8.74-7.764-1.742-3.173-2.612-7.43-2.612-12.768l.049-6.787V18.82c0-5.273-.155-8.675-.464-10.205-.31-1.53-.96-2.588-1.953-3.174-.993-.586-3.166-.878-6.519-.878h-1.514V2.316h30.225v2.247h-1.318c-3.256 0-5.388.268-6.397.805-1.009.537-1.684 1.538-2.026 3.003-.342 1.465-.513 4.948-.513 10.45V39.67c0 7.227.334 12.353 1.001 15.38.667 3.028 2.547 5.673 5.64 7.935 3.092 2.263 7.21 3.394 12.353 3.394 4.037 0 7.707-.757 11.01-2.27 3.305-1.514 5.763-3.402 7.374-5.665 1.611-2.262 2.596-4.59 2.954-6.982.358-2.393.537-6.16.537-11.304V17.6c0-3.744-.211-6.364-.635-7.862-.423-1.497-1.334-2.685-2.734-3.564-1.4-.88-3.613-1.416-6.64-1.612V2.317zm70.41 37.94H438.5V42.6c-3.158 0-5.298.317-6.42.952-1.124.635-1.865 1.692-2.223 3.174-.358 1.48-.537 5.07-.537 10.766v7.031a12.908 12.908 0 0 0-2.1-.195c-2.506 0-5.794.765-9.863 2.295-5.533 2.083-10.66 3.125-15.38 3.125-9.473 0-17.35-3.117-23.633-9.35-6.283-6.234-9.424-14.136-9.424-23.707 0-9.472 2.995-17.773 8.984-24.902 5.99-7.129 14.128-10.693 24.414-10.693 8.855 0 16.179 3.255 21.973 9.765 1.074-2.278 1.758-4.736 2.05-7.373h2.345v22.12h-2.344c-.944-6.804-3.524-12.191-7.74-16.163-4.215-3.971-9.334-5.957-15.356-5.957-6.217 0-11.637 2.311-16.26 6.934-4.622 4.622-6.933 12.825-6.933 24.61 0 11.75 2.23 20.076 6.69 24.975 4.459 4.899 9.993 7.348 16.6 7.348 3.386 0 6.462-.691 9.23-2.075 2.766-1.383 4.654-3.068 5.663-5.053 1.01-1.986 1.514-4.493 1.514-7.52 0-3.548-.236-5.916-.708-7.104-.472-1.189-1.196-1.986-2.173-2.393-.976-.407-2.767-.61-5.371-.61h-1.562v-2.344zm90.528 8.789l-.488 19.482h-56.25v-2.246h1.953c2.832 0 4.793-.358 5.884-1.074 1.09-.716 1.79-1.831 2.1-3.345.308-1.513.463-5.037.463-10.571v-32.47c0-5.274-.155-8.676-.464-10.206-.31-1.53-.96-2.588-1.953-3.174-.993-.586-3.166-.878-6.519-.878h-1.464V2.316h31.787v2.247h-2.93c-3.255 0-5.387.268-6.396.805-1.01.537-1.685 1.538-2.027 3.003-.342 1.465-.513 4.948-.513 10.45v34.667c0 4.785.13 7.78.391 8.985.26 1.204.969 2.14 2.124 2.807 1.156.668 3.638 1.001 7.446 1.001h5.03c4.069 0 7.088-.358 9.057-1.074 1.97-.716 3.841-2.279 5.616-4.687 1.774-2.41 3.393-6.234 4.858-11.475h2.295zm57.91-1.123h2.344L559.3 68.527h-54.834v-2.246h1.367c3.288 0 5.412-.44 6.372-1.318.96-.879 1.57-1.994 1.831-3.345.26-1.35.39-4.793.39-10.327v-32.47c0-5.046-.138-8.367-.414-9.962-.277-1.595-.912-2.71-1.905-3.344-.992-.635-3.084-.952-6.274-.952V2.316h47.314l1.563 16.504h-2.295c-1.042-4.622-2.32-7.902-3.833-9.839-1.514-1.936-3.312-3.157-5.395-3.662-2.084-.504-5.437-.756-10.06-.756h-9.179v27.783h7.031c3.223 0 5.477-.277 6.763-.83 1.286-.554 2.132-1.392 2.54-2.515.406-1.123.61-3.312.61-6.567h2.294V45.09h-2.294c0-3.679-.31-6.144-.928-7.398-.619-1.253-1.522-2.067-2.71-2.441-1.188-.374-3.198-.562-6.03-.562h-7.276v15.674c0 7.845.505 12.46 1.514 13.843 1.009 1.384 3.727 2.075 8.154 2.075h4.932c3.483 0 6.347-.447 8.594-1.343 2.246-.895 4.386-2.734 6.42-5.517 2.035-2.783 3.638-6.616 4.81-11.5zm53.418-10.547v13.916c0 5.208.122 8.618.366 10.23.244 1.61.904 2.807 1.978 3.588 1.074.782 3.092 1.172 6.054 1.172h2.198v2.246h-30.323v-2.246h1.758c2.832 0 4.794-.358 5.884-1.074 1.09-.716 1.782-1.831 2.075-3.345.293-1.513.44-5.037.44-10.571v-32.47c0-5.274-.147-8.676-.44-10.206-.293-1.53-.944-2.588-1.953-3.174-1.009-.586-3.19-.878-6.543-.878h-1.22V2.316l8.3-.293c6.64-.227 11.817-.341 15.528-.341 6.836 0 12.1.537 15.795 1.611 3.695 1.074 6.722 2.978 9.083 5.713 2.36 2.734 3.54 6.185 3.54 10.351 0 3.614-.806 6.804-2.417 9.57-1.612 2.768-3.923 4.867-6.934 6.3-3.011 1.432-8.309 2.148-15.894 2.148h-7.275zm0-2.441h4.736c3.809 0 6.885-.383 9.229-1.148 2.344-.765 4.297-2.368 5.86-4.81 1.562-2.44 2.343-5.452 2.343-9.033 0-5.468-1.343-9.48-4.028-12.036-2.686-2.555-7.04-3.833-13.062-3.833-2.213 0-3.906.065-5.078.196v30.664zm76.416 9.18h-25.146l-1.71 4.199c-2.539 6.087-3.808 10.058-3.808 11.914 0 1.985.675 3.49 2.026 4.516 1.351 1.026 3.085 1.538 5.2 1.538v2.246h-19.677v-2.246c2.93-.455 5.11-1.489 6.543-3.1 1.432-1.612 3.157-5.005 5.176-10.181.162-.488.944-2.376 2.343-5.664l19.239-45.947h1.904l22.119 52.588 3.027 6.933c.684 1.563 1.604 2.791 2.76 3.687 1.155.895 2.888 1.456 5.2 1.684v2.246h-26.026v-2.246c3.19 0 5.347-.236 6.47-.708 1.123-.472 1.684-1.408 1.684-2.807 0-.717-.748-2.849-2.246-6.397l-5.078-12.256zm-.83-2.198l-11.719-28.223-11.67 28.223h23.389zm98.096 26.611H767.65c-3.157-2.213-7.991-8.007-14.502-17.382a140.217 140.217 0 0 0-6.494-8.619c-2.246-2.75-3.792-4.427-4.638-5.029-.847-.602-2.165-.903-3.955-.903h-2.637V51.29c0 5.208.122 8.618.366 10.23.244 1.61.895 2.807 1.953 3.588 1.058.782 3.084 1.172 6.08 1.172h3.173v2.246h-31.69v-2.246h2.15c2.831 0 4.792-.358 5.883-1.074 1.09-.716 1.782-1.831 2.075-3.345.293-1.513.44-5.037.44-10.571v-32.47c0-5.274-.147-8.676-.44-10.206-.293-1.53-.944-2.588-1.953-3.174-1.01-.586-3.19-.878-6.543-.878h-1.123V2.316l9.473-.488c6.315-.293 11.328-.44 15.039-.44 6.315 0 11.45.587 15.405 1.758 3.955 1.172 7.153 3.093 9.595 5.762 2.441 2.67 3.662 5.86 3.662 9.57 0 4.33-1.595 8.025-4.785 11.084-3.19 3.06-7.878 4.965-14.063 5.713 2.767 1.335 7.227 6.153 13.379 14.454 5.013 6.738 8.952 11.149 11.816 13.232 2.865 2.083 6.25 3.19 10.157 3.32v2.246zm-50.05-34.18c2.442-.064 4.965-.162 7.57-.292 2.603-.13 4.866-.489 6.786-1.075 1.92-.585 3.475-1.44 4.663-2.563 1.189-1.123 2.124-2.596 2.808-4.419.684-1.823 1.025-4.069 1.025-6.738 0-4.655-1.163-8.382-3.49-11.182-2.328-2.8-7.398-4.2-15.21-4.2-1.205 0-2.589.066-4.151.196v30.274zm118.409 9.766h-25.146l-1.71 4.2c-2.539 6.087-3.808 10.058-3.808 11.914 0 1.985.675 3.49 2.026 4.516 1.351 1.026 3.085 1.538 5.2 1.538v2.246h-19.677v-2.246c2.93-.455 5.11-1.489 6.543-3.1 1.432-1.612 3.157-5.005 5.176-10.181.162-.488.944-2.376 2.343-5.664l19.239-45.947h1.904l22.119 52.588 3.027 6.933c.684 1.563 1.604 2.791 2.76 3.687 1.155.895 2.888 1.456 5.2 1.684v2.246h-26.026v-2.246c3.19 0 5.347-.236 6.47-.708 1.123-.472 1.684-1.408 1.684-2.807 0-.717-.748-2.849-2.246-6.397l-5.078-12.256zm-.83-2.197l-11.719-28.223-11.67 28.223h23.389zm71.777 15.186L948.9 2.316h20.313v2.247h-2.442c-3.255 0-5.387.268-6.396.805-1.01.537-1.685 1.538-2.026 3.003-.342 1.465-.513 4.948-.513 10.45v32.47c0 5.208.13 8.618.39 10.23.261 1.61.92 2.807 1.978 3.588 1.058.782 3.084 1.172 6.08 1.172h2.929v2.246h-31.64v-2.246h2.343c2.8 0 4.744-.358 5.835-1.074 1.09-.716 1.79-1.831 2.1-3.345.309-1.513.463-5.037.463-10.571V9.152l-26.22 59.375h-2.295L893.383 9.152v38.77c0 5.306.163 8.92.488 10.84.326 1.92 1.335 3.605 3.027 5.053 1.693 1.449 4.07 2.27 7.13 2.466v2.246h-23.682v-2.246c2.832-.163 5.135-.936 6.909-2.32 1.774-1.383 2.856-3.083 3.247-5.102.39-2.018.586-5.761.586-11.23V18.82c0-5.273-.155-8.675-.464-10.205-.31-1.53-.96-2.588-1.953-3.174-.993-.586-3.166-.878-6.519-.878h-1.806V2.316h20.166l24.267 54.786zm51.465-22.12c0-10.221 3.418-18.424 10.254-24.609 6.836-6.185 15.365-9.277 25.586-9.277 10.32 0 18.937 3.06 25.854 9.18 6.918 6.12 10.376 14.469 10.376 25.048 0 10.254-3.312 18.555-9.936 24.903-6.624 6.347-15.34 9.521-26.148 9.521-10.514 0-19.14-3.174-25.878-9.521-6.739-6.348-10.108-14.763-10.108-25.245zm11.182.342c0 10.645 2.124 18.636 6.372 23.975 4.248 5.338 10.62 8.008 19.116 8.008 7.455 0 13.346-2.67 17.676-8.008 4.33-5.339 6.494-13.298 6.494-23.877 0-10.287-2.132-18.172-6.397-23.657-4.264-5.485-10.449-8.228-18.554-8.228-7.975 0-14.087 2.677-18.335 8.032-4.248 5.355-6.372 13.273-6.372 23.755zm118.799-33.008h22.119v2.247c-2.93.195-5.12.854-6.568 1.977-1.448 1.123-2.335 2.384-2.66 3.784-.326 1.4-.489 4.118-.489 8.155V40.5c0 5.632-.22 9.814-.66 12.549-.439 2.734-1.708 5.42-3.808 8.056-2.1 2.637-5.054 4.737-8.862 6.3-3.809 1.562-8.203 2.343-13.184 2.343-5.892 0-10.88-1-14.966-3.003-4.085-2.002-6.998-4.59-8.74-7.764-1.741-3.173-2.612-7.43-2.612-12.768l.049-6.787V18.82c0-5.273-.155-8.675-.464-10.205-.31-1.53-.96-2.588-1.953-3.174-.993-.586-3.166-.878-6.519-.878h-1.513V2.316h30.224v2.247h-1.318c-3.255 0-5.388.268-6.397.805-1.009.537-1.684 1.538-2.026 3.003-.342 1.465-.513 4.948-.513 10.45V39.67c0 7.227.334 12.353 1.001 15.38.668 3.028 2.547 5.673 5.64 7.935 3.092 2.263 7.21 3.394 12.353 3.394 4.037 0 7.707-.757 11.011-2.27 3.304-1.514 5.762-3.402 7.373-5.665 1.611-2.262 2.596-4.59 2.954-6.982.358-2.393.537-6.16.537-11.304V17.6c0-3.744-.211-6.364-.634-7.862-.424-1.497-1.335-2.685-2.735-3.564-1.4-.88-3.613-1.416-6.64-1.612V2.317zm96.972 66.211h-17.822c-3.158-2.213-7.992-8.007-14.502-17.382a140.222 140.222 0 0 0-6.494-8.619c-2.246-2.75-3.792-4.427-4.639-5.029-.846-.602-2.164-.903-3.955-.903h-2.637V51.29c0 5.208.123 8.618.367 10.23.244 1.61.895 2.807 1.953 3.588 1.058.782 3.084 1.172 6.079 1.172h3.174v2.246h-31.69v-2.246h2.149c2.832 0 4.793-.358 5.883-1.074 1.091-.716 1.783-1.831 2.076-3.345.293-1.513.44-5.037.44-10.571v-32.47c0-5.274-.147-8.676-.44-10.206-.293-1.53-.944-2.588-1.953-3.174-1.01-.586-3.19-.878-6.543-.878h-1.123V2.316l9.472-.488c6.315-.293 11.328-.44 15.04-.44 6.314 0 11.45.587 15.405 1.758 3.955 1.172 7.153 3.093 9.594 5.762 2.442 2.67 3.662 5.86 3.662 9.57 0 4.33-1.595 8.025-4.785 11.084-3.19 3.06-7.877 4.965-14.062 5.713 2.767 1.335 7.226 6.153 13.379 14.454 5.013 6.738 8.951 11.149 11.816 13.232s6.25 3.19 10.156 3.32v2.246zm-50.049-34.18c2.442-.064 4.965-.162 7.569-.292 2.604-.13 4.866-.489 6.787-1.075 1.92-.585 3.475-1.44 4.663-2.563 1.188-1.123 2.124-2.596 2.808-4.419.683-1.823 1.025-4.069 1.025-6.738 0-4.655-1.164-8.382-3.491-11.182-2.328-2.8-7.398-4.2-15.21-4.2-1.205 0-2.588.066-4.15.196v30.274z" stroke="#D3CD84" stroke-width="1.5" fill="none" fill-rule="evenodd"/></svg>